<svg id="Layer_1" data-name="Layer 1" xmlns="http://www.w3.org/2000/svg" viewBox="0 0 500 500"><path d="M230.17,166.32h48.61a7.39,7.39,0,0,0,7.39-7.39v-7.62a7.39,7.39,0,0,0-7.39-7.39H230.17A26.13,26.13,0,0,0,204,170.05v89.59a26.13,26.13,0,0,0,26.13,26.14H260a26.13,26.13,0,0,0,26.13-26.14V229.78A26.13,26.13,0,0,0,260,203.65h-33.6v-33.6a3.73,3.73,0,0,1,3.73-3.73Zm33.6,63.46v29.86a3.74,3.74,0,0,1-3.73,3.74H230.17a3.75,3.75,0,0,1-3.73-3.74V226.05H260A3.73,3.73,0,0,1,263.77,229.78Z"/><path d="M183.88,170.05a26.13,26.13,0,0,0-26.13-26.13h-37.4a7.39,7.39,0,0,0-7.39,7.39v7.62a7.39,7.39,0,0,0,7.39,7.39h37.4a3.74,3.74,0,0,1,3.74,3.73v29.87a3.74,3.74,0,0,1-3.74,3.73H135.28a7.39,7.39,0,0,0-7.39,7.39v7.62a7.39,7.39,0,0,0,7.39,7.39h22.47a3.74,3.74,0,0,1,3.74,3.73v29.86a3.74,3.74,0,0,1-3.74,3.74h-37.4a7.39,7.39,0,0,0-7.39,7.39v7.61a7.39,7.39,0,0,0,7.39,7.4h37.4a26.13,26.13,0,0,0,26.13-26.14V229.78a26,26,0,0,0-2.74-11.64,7.33,7.33,0,0,1,0-6.58,26,26,0,0,0,2.74-11.64Z"/><path d="M361.58,285.78H331.71a26.17,26.17,0,0,1-26.13-26.14V170.05a26.16,26.16,0,0,1,26.13-26.13h29.87a26.16,26.16,0,0,1,26.13,26.13v89.59A26.17,26.17,0,0,1,361.58,285.78ZM331.71,166.32a3.74,3.74,0,0,0-3.73,3.73v89.59a3.75,3.75,0,0,0,3.73,3.74h29.87a3.74,3.74,0,0,0,3.73-3.74V170.05a3.73,3.73,0,0,0-3.73-3.73Z"/><circle cx="410.85" cy="125.25" r="17.92"/><path d="M434,385.82c0-20.62-82.23-37.33-183.67-37.33S66.67,365.2,66.67,385.82V348.49c0-20.62,82.23-37.33,183.66-37.33S434,327.87,434,348.49v37.33Z"/><path d="M291.39,398.51,255,372.06a3,3,0,0,0-4.7,2.39v11.37c-101.43,0-183.66-16.71-183.66-37.33v37.33c0,20.62,82.23,37.33,183.66,37.33v11.37a3,3,0,0,0,4.7,2.39l36.36-26.45a7.38,7.38,0,0,0,0-11.95Z"/><path d="M330.22,388.78v22.45a7.39,7.39,0,0,0,8.21,7.35C395.38,412.24,434,400,434,385.82V348.49c0,14.26-39.36,26.66-97.21,32.94a7.39,7.39,0,0,0-6.57,7.35Z"/></svg>