<svg id="Layer_1" data-name="Layer 1" xmlns="http://www.w3.org/2000/svg" viewBox="0 0 500 500"><path d="M143.68,145.75V335.28L85.6,177a9.67,9.67,0,0,1,5.8-12.42Z"/><path d="M414.41,177l-58,158V145.79l52.18,18.83a9.68,9.68,0,0,1,5.8,12.42Z"/><path d="M327.42,107.62H172.69a9.68,9.68,0,0,0-9.67,9.67V428a9.67,9.67,0,0,0,9.67,9.67H327.42a9.67,9.67,0,0,0,9.67-9.67V117.29A9.68,9.68,0,0,0,327.42,107.62Zm-58,272.07h-58a9.67,9.67,0,0,1,0-19.34h58a9.67,9.67,0,1,1,0,19.34ZM288.74,341H211.37a9.68,9.68,0,0,1,0-19.35h77.37a9.68,9.68,0,0,1,0,19.35Zm0-38.69h-58a9.67,9.67,0,1,1,0-19.34h58a9.67,9.67,0,1,1,0,19.34Zm9.67-67.69a9.68,9.68,0,0,1-9.67,9.67H211.37a9.67,9.67,0,0,1-9.67-9.67v-58a9.67,9.67,0,0,1,9.67-9.67h77.37a9.68,9.68,0,0,1,9.67,9.67Z"/><path d="M221,186.28h58V225H221Z"/></svg>